<?xml version="1.0" encoding="UTF-8" standalone="no"?>
<!-- Created with Inkscape (http://www.inkscape.org/) -->
<svg
   xmlns:dc="http://purl.org/dc/elements/1.1/"
   xmlns:cc="http://web.resource.org/cc/"
   xmlns:rdf="http://www.w3.org/1999/02/22-rdf-syntax-ns#"
   xmlns:svg="http://www.w3.org/2000/svg"
   xmlns="http://www.w3.org/2000/svg"
   xmlns:sodipodi="http://sodipodi.sourceforge.net/DTD/sodipodi-0.dtd"
   xmlns:inkscape="http://www.inkscape.org/namespaces/inkscape"
   width="65.0625"
   height="60"
   id="Ogham letter straif"
   sodipodi:version="0.32"
   inkscape:version="0.44"
   version="1.0"
   sodipodi:docbase="D:\Home\Wikipedia"
   sodipodi:docname="Ogham letter straif.svg">
  <defs
     id="defs2091" />
  <sodipodi:namedview
     id="base"
     pagecolor="#ffffff"
     bordercolor="#666666"
     borderopacity="1.0"
     gridtolerance="10000"
     guidetolerance="10"
     objecttolerance="10"
     inkscape:pageopacity="0.0"
     inkscape:pageshadow="2"
     inkscape:zoom="8.65"
     inkscape:cx="32.53125"
     inkscape:cy="30"
     inkscape:document-units="px"
     inkscape:current-layer="layer1"
     inkscape:window-width="1024"
     inkscape:window-height="682"
     inkscape:window-x="-4"
     inkscape:window-y="-4" />
  <metadata
     id="metadata2094">
    <rdf:RDF>
      <cc:Work
         rdf:about="">
        <dc:format>image/svg+xml</dc:format>
        <dc:type
           rdf:resource="http://purl.org/dc/dcmitype/StillImage" />
      </cc:Work>
    </rdf:RDF>
  </metadata>
  <g
     inkscape:label="Layer 1"
     inkscape:groupmode="layer"
     id="layer1"
     transform="translate(-744.6116,-373.7907)">
    <path
       style="fill:black;fill-opacity:1;fill-rule:evenodd;stroke:none;stroke-width:3.9999969;stroke-linecap:butt;stroke-linejoin:round;stroke-miterlimit:4;stroke-dasharray:none;stroke-opacity:1"
       d="M 771.33036,381.79075 L 761.01786,401.79075 L 744.61161,401.79075 L 744.61161,405.79075 L 758.92411,405.79075 L 748.61161,425.79075 L 753.11161,425.79075 L 763.42411,405.79075 L 768.86161,405.79075 L 758.54911,425.79075 L 763.08036,425.79075 L 773.39286,405.79075 L 778.83036,405.79075 L 768.48661,425.79075 L 773.01786,425.79075 L 783.33036,405.79075 L 788.76786,405.79075 L 778.45536,425.79075 L 782.98661,425.79075 L 793.29911,405.79075 L 809.67411,405.79075 L 809.67411,401.79075 L 795.36161,401.79075 L 805.67411,381.79075 L 801.17411,381.79075 L 790.86161,401.79075 L 785.42411,401.79075 L 795.73661,381.79075 L 791.23661,381.79075 L 780.89286,401.79075 L 775.45536,401.79075 L 785.76786,381.79075 L 781.26786,381.79075 L 770.95536,401.79075 L 765.51786,401.79075 L 775.83036,381.79075 L 771.33036,381.79075 z "
       id="path2046" />
  </g>
</svg>
