<?xml version="1.0" encoding="UTF-8" standalone="no"?>
<!-- Created with Inkscape (http://www.inkscape.org/) -->
<svg
   xmlns:dc="http://purl.org/dc/elements/1.1/"
   xmlns:cc="http://web.resource.org/cc/"
   xmlns:rdf="http://www.w3.org/1999/02/22-rdf-syntax-ns#"
   xmlns:svg="http://www.w3.org/2000/svg"
   xmlns="http://www.w3.org/2000/svg"
   xmlns:sodipodi="http://sodipodi.sourceforge.net/DTD/sodipodi-0.dtd"
   xmlns:inkscape="http://www.inkscape.org/namespaces/inkscape"
   width="75.000046"
   height="60"
   id="Ogham letter ruis"
   sodipodi:version="0.32"
   inkscape:version="0.44"
   version="1.0"
   sodipodi:docbase="D:\Home\Wikipedia"
   sodipodi:docname="Ogham letter ruis.svg">
  <defs
     id="defs2107" />
  <sodipodi:namedview
     id="base"
     pagecolor="#ffffff"
     bordercolor="#666666"
     borderopacity="1.0"
     gridtolerance="10000"
     guidetolerance="10"
     objecttolerance="10"
     inkscape:pageopacity="0.0"
     inkscape:pageshadow="2"
     inkscape:zoom="8.65"
     inkscape:cx="37.5"
     inkscape:cy="30"
     inkscape:document-units="px"
     inkscape:current-layer="layer1"
     inkscape:window-width="1024"
     inkscape:window-height="682"
     inkscape:window-x="-4"
     inkscape:window-y="-4" />
  <metadata
     id="metadata2110">
    <rdf:RDF>
      <cc:Work
         rdf:about="">
        <dc:format>image/svg+xml</dc:format>
        <dc:type
           rdf:resource="http://purl.org/dc/dcmitype/StillImage" />
      </cc:Work>
    </rdf:RDF>
  </metadata>
  <g
     inkscape:label="Layer 1"
     inkscape:groupmode="layer"
     id="layer1"
     transform="translate(-1034.958,-193.5018)">
    <path
       style="fill:black;fill-opacity:1;fill-rule:evenodd;stroke:none;stroke-width:3.9999969;stroke-linecap:butt;stroke-linejoin:round;stroke-miterlimit:4;stroke-dasharray:none;stroke-opacity:1"
       d="M 1061.677,201.50178 L 1051.3645,221.50178 L 1034.9583,221.50178 L 1034.9583,225.50178 L 1049.2708,225.50178 L 1038.9583,245.50178 L 1043.4583,245.50178 L 1053.7708,225.50178 L 1059.2083,225.50178 L 1048.8958,245.50178 L 1053.427,245.50178 L 1063.7395,225.50178 L 1069.177,225.50178 L 1058.8333,245.50178 L 1063.3645,245.50178 L 1073.677,225.50178 L 1079.1145,225.50178 L 1068.802,245.50178 L 1073.3333,245.50178 L 1083.6458,225.50178 L 1089.0833,225.50178 L 1078.7395,245.50178 L 1083.2708,245.50178 L 1093.5833,225.50178 L 1109.9583,225.50178 L 1109.9583,221.50178 L 1095.6458,221.50178 L 1105.9583,201.50178 L 1101.4895,201.50178 L 1091.1458,221.50178 L 1085.7083,221.50178 L 1096.0208,201.50178 L 1091.5208,201.50178 L 1081.2083,221.50178 L 1075.7708,221.50178 L 1086.0833,201.50178 L 1081.5833,201.50178 L 1071.2395,221.50178 L 1065.802,221.50178 L 1076.1145,201.50178 L 1071.6145,201.50178 L 1061.302,221.50178 L 1055.8645,221.50178 L 1066.177,201.50178 L 1061.677,201.50178 z "
       id="path2886" />
  </g>
</svg>
